<svg id="Layer_1" data-name="Layer 1" xmlns="http://www.w3.org/2000/svg" viewBox="0 0 1000 1028"><defs><style>.cls-1{fill:#ff492c;}</style></defs><title>Artboard 12</title><path class="cls-1" d="M893.44,303.73H740c4.17-24.11,19-37.56,49.16-52.86l28.28-14.38c50.55-26,77.44-55.18,77.44-102.94q0-45.21-34.78-71c-22.72-17.15-50.54-25.5-82.54-25.5-25.5,0-48.69,6.49-70,19.94-20.86,13-36.63,29.68-46.37,50.54l44.52,44.52c17.16-34.78,42.2-51.93,75.12-51.93,27.82,0,45,14.37,45,34.31,0,16.7-8.35,30.61-40.34,46.83l-18.09,8.82c-39.42,19.93-66.77,42.66-82.54,68.62-15.76,25.51-23.65,58.43-23.65,97.85v10.66H893.44Z"/><polygon class="cls-1" points="872.92 440.63 618.76 440.63 491.69 660.74 745.84 660.74 872.92 880.84 1000 660.74 872.92 440.63"/><path class="cls-1" d="M513.58,807.47c-161.82,0-293.47-131.65-293.47-293.47S351.76,220.53,513.58,220.53L614.06,10.27A516.5,516.5,0,0,0,513.58.42C229.94.42,0,230.36,0,514s229.94,513.58,513.58,513.58A511.22,511.22,0,0,0,816,929.07L704.78,736.36A292.12,292.12,0,0,1,513.58,807.47Z"/></svg>